<svg id="visual" viewBox="0 0 900 600" width="900" height="600" xmlns="http://www.w3.org/2000/svg" xmlns:xlink="http://www.w3.org/1999/xlink" version="1.1"><rect x="0" y="0" width="900" height="600" fill="#e1ecf3"></rect><path d="M0 394L21.5 393.2C43 392.3 86 390.7 128.8 377.7C171.7 364.7 214.3 340.3 257.2 337.8C300 335.3 343 354.7 385.8 369.5C428.7 384.3 471.3 394.7 514.2 395.5C557 396.3 600 387.7 642.8 370.2C685.7 352.7 728.3 326.3 771.2 315.8C814 305.3 857 310.7 878.5 313.3L900 316L900 601L878.5 601C857 601 814 601 771.2 601C728.3 601 685.7 601 642.8 601C600 601 557 601 514.2 601C471.3 601 428.7 601 385.8 601C343 601 300 601 257.2 601C214.3 601 171.7 601 128.8 601C86 601 43 601 21.5 601L0 601Z" fill="#69fa70"></path><path d="M0 381L21.5 388.2C43 395.3 86 409.7 128.8 411.7C171.7 413.7 214.3 403.3 257.2 394.5C300 385.7 343 378.3 385.8 376.5C428.7 374.7 471.3 378.3 514.2 389.7C557 401 600 420 642.8 420.7C685.7 421.3 728.3 403.7 771.2 397.7C814 391.7 857 397.3 878.5 400.2L900 403L900 601L878.5 601C857 601 814 601 771.2 601C728.3 601 685.7 601 642.8 601C600 601 557 601 514.2 601C471.3 601 428.7 601 385.8 601C343 601 300 601 257.2 601C214.3 601 171.7 601 128.8 601C86 601 43 601 21.5 601L0 601Z" fill="#64ed5f"></path><path d="M0 416L21.5 427.8C43 439.7 86 463.3 128.8 469.8C171.7 476.3 214.3 465.7 257.2 452.7C300 439.7 343 424.3 385.8 428C428.7 431.7 471.3 454.3 514.2 458.5C557 462.7 600 448.3 642.8 437.3C685.7 426.3 728.3 418.7 771.2 417.3C814 416 857 421 878.5 423.5L900 426L900 601L878.5 601C857 601 814 601 771.2 601C728.3 601 685.7 601 642.8 601C600 601 557 601 514.2 601C471.3 601 428.7 601 385.8 601C343 601 300 601 257.2 601C214.3 601 171.7 601 128.8 601C86 601 43 601 21.5 601L0 601Z" fill="#5ee04d"></path><path d="M0 516L21.5 517.7C43 519.3 86 522.7 128.8 517.8C171.7 513 214.3 500 257.2 490C300 480 343 473 385.8 468C428.7 463 471.3 460 514.2 458.7C557 457.3 600 457.7 642.8 458C685.7 458.3 728.3 458.7 771.2 468.2C814 477.7 857 496.3 878.5 505.7L900 515L900 601L878.5 601C857 601 814 601 771.2 601C728.3 601 685.7 601 642.8 601C600 601 557 601 514.2 601C471.3 601 428.7 601 385.8 601C343 601 300 601 257.2 601C214.3 601 171.7 601 128.8 601C86 601 43 601 21.5 601L0 601Z" fill="#58d33a"></path><path d="M0 524L21.5 529.8C43 535.7 86 547.3 128.8 553.7C171.7 560 214.3 561 257.2 554.3C300 547.7 343 533.3 385.8 529C428.7 524.7 471.3 530.3 514.2 538.3C557 546.3 600 556.7 642.8 554.5C685.7 552.3 728.3 537.7 771.2 534.5C814 531.3 857 539.7 878.5 543.8L900 548L900 601L878.5 601C857 601 814 601 771.2 601C728.3 601 685.7 601 642.8 601C600 601 557 601 514.2 601C471.3 601 428.7 601 385.8 601C343 601 300 601 257.2 601C214.3 601 171.7 601 128.8 601C86 601 43 601 21.5 601L0 601Z" fill="#52c724"></path></svg>