<svg id="visual" viewBox="0 0 900 600" width="900" height="600" xmlns="http://www.w3.org/2000/svg" xmlns:xlink="http://www.w3.org/1999/xlink" version="1.1"><rect x="0" y="0" width="900" height="600" fill="#ffffff"></rect><defs><linearGradient id="grad1_0" x1="33.3%" y1="0%" x2="100%" y2="100%"><stop offset="20%" stop-color="#ffffff" stop-opacity="1"></stop><stop offset="80%" stop-color="#ffffff" stop-opacity="1"></stop></linearGradient></defs><defs><linearGradient id="grad2_0" x1="0%" y1="0%" x2="66.7%" y2="100%"><stop offset="20%" stop-color="#ffffff" stop-opacity="1"></stop><stop offset="80%" stop-color="#ffffff" stop-opacity="1"></stop></linearGradient></defs><g transform="translate(900, 0)"><path d="M0 270.4C-39.5 271.1 -79 271.9 -103.5 249.8C-128 227.8 -137.5 183 -154.1 154.1C-170.8 125.2 -194.7 112.2 -215.3 89.2C-235.8 66.1 -253.1 33.1 -270.4 0L0 0Z" fill="#FBAE3C"></path></g><g transform="translate(0, 600)"><path d="M0 -270.4C39.1 -270.2 78.3 -269.9 103.5 -249.8C128.7 -229.8 140 -189.9 164 -164C188.1 -138.2 225 -126.4 244.8 -101.4C264.7 -76.4 267.6 -38.2 270.4 0L0 0Z" fill="#FBAE3C"></path></g></svg>