<svg id="visual" viewBox="0 0 900 600" width="900" height="600" xmlns="http://www.w3.org/2000/svg" xmlns:xlink="http://www.w3.org/1999/xlink" version="1.1"><rect x="0" y="0" width="900" height="600" fill="#ffffff"></rect><path d="M0 423L21.5 427.2C43 431.3 86 439.7 128.8 433.3C171.7 427 214.3 406 257.2 402.7C300 399.3 343 413.7 385.8 409.5C428.7 405.3 471.3 382.7 514.2 369.8C557 357 600 354 642.8 358C685.7 362 728.3 373 771.2 384C814 395 857 406 878.5 411.5L900 417L900 601L878.5 601C857 601 814 601 771.2 601C728.3 601 685.7 601 642.8 601C600 601 557 601 514.2 601C471.3 601 428.7 601 385.8 601C343 601 300 601 257.2 601C214.3 601 171.7 601 128.8 601C86 601 43 601 21.5 601L0 601Z" fill="#69faa0"></path><path d="M0 453L21.5 450.2C43 447.3 86 441.7 128.8 445.8C171.7 450 214.3 464 257.2 470.3C300 476.7 343 475.3 385.8 473.3C428.7 471.3 471.3 468.7 514.2 461.8C557 455 600 444 642.8 445.8C685.7 447.7 728.3 462.3 771.2 455.7C814 449 857 421 878.5 407L900 393L900 601L878.5 601C857 601 814 601 771.2 601C728.3 601 685.7 601 642.8 601C600 601 557 601 514.2 601C471.3 601 428.7 601 385.8 601C343 601 300 601 257.2 601C214.3 601 171.7 601 128.8 601C86 601 43 601 21.5 601L0 601Z" fill="#97fcb7"></path><path d="M0 467L21.5 474.2C43 481.3 86 495.7 128.8 501C171.7 506.3 214.3 502.7 257.2 499.8C300 497 343 495 385.8 495.8C428.7 496.7 471.3 500.3 514.2 495.3C557 490.3 600 476.7 642.8 474.7C685.7 472.7 728.3 482.3 771.2 482.5C814 482.7 857 473.3 878.5 468.7L900 464L900 601L878.5 601C857 601 814 601 771.2 601C728.3 601 685.7 601 642.8 601C600 601 557 601 514.2 601C471.3 601 428.7 601 385.8 601C343 601 300 601 257.2 601C214.3 601 171.7 601 128.8 601C86 601 43 601 21.5 601L0 601Z" fill="#bdfecf"></path><path d="M0 481L21.5 482.3C43 483.7 86 486.3 128.8 487.7C171.7 489 214.3 489 257.2 495.7C300 502.3 343 515.7 385.8 519.2C428.7 522.7 471.3 516.3 514.2 513C557 509.7 600 509.3 642.8 504.7C685.7 500 728.3 491 771.2 487.7C814 484.3 857 486.7 878.5 487.8L900 489L900 601L878.5 601C857 601 814 601 771.2 601C728.3 601 685.7 601 642.8 601C600 601 557 601 514.2 601C471.3 601 428.7 601 385.8 601C343 601 300 601 257.2 601C214.3 601 171.7 601 128.8 601C86 601 43 601 21.5 601L0 601Z" fill="#dfffe7"></path><path d="M0 569L21.5 561.7C43 554.3 86 539.7 128.8 540.2C171.7 540.7 214.3 556.3 257.2 557.2C300 558 343 544 385.8 540C428.7 536 471.3 542 514.2 547.7C557 553.3 600 558.7 642.8 562.8C685.7 567 728.3 570 771.2 565C814 560 857 547 878.5 540.5L900 534L900 601L878.5 601C857 601 814 601 771.2 601C728.3 601 685.7 601 642.8 601C600 601 557 601 514.2 601C471.3 601 428.7 601 385.8 601C343 601 300 601 257.2 601C214.3 601 171.7 601 128.8 601C86 601 43 601 21.5 601L0 601Z" fill="#ffffff"></path></svg>