<svg id="visual" viewBox="0 0 900 600" width="900" height="600" xmlns="http://www.w3.org/2000/svg" xmlns:xlink="http://www.w3.org/1999/xlink" version="1.1"><path d="M0 331L82 331L82 187L164 187L164 283L245 283L245 319L327 319L327 277L409 277L409 265L491 265L491 169L573 169L573 217L655 217L655 271L736 271L736 193L818 193L818 295L900 295L900 103L900 0L900 0L818 0L818 0L736 0L736 0L655 0L655 0L573 0L573 0L491 0L491 0L409 0L409 0L327 0L327 0L245 0L245 0L164 0L164 0L82 0L82 0L0 0Z" fill="#ffffff"></path><path d="M0 469L82 469L82 403L164 403L164 475L245 475L245 487L327 487L327 397L409 397L409 529L491 529L491 433L573 433L573 511L655 511L655 451L736 451L736 415L818 415L818 409L900 409L900 409L900 101L900 293L818 293L818 191L736 191L736 269L655 269L655 215L573 215L573 167L491 167L491 263L409 263L409 275L327 275L327 317L245 317L245 281L164 281L164 185L82 185L82 329L0 329Z" fill="#a0d9a4"></path><path d="M0 601L82 601L82 601L164 601L164 601L245 601L245 601L327 601L327 601L409 601L409 601L491 601L491 601L573 601L573 601L655 601L655 601L736 601L736 601L818 601L818 601L900 601L900 601L900 407L900 407L818 407L818 413L736 413L736 449L655 449L655 509L573 509L573 431L491 431L491 527L409 527L409 395L327 395L327 485L245 485L245 473L164 473L164 401L82 401L82 467L0 467Z" fill="#23b04c"></path></svg>